<?xml version="1.0" encoding="UTF-8" standalone="no"?>
<svg width="294px" height="104px" viewBox="0 0 294 104" version="1.1" xmlns="http://www.w3.org/2000/svg" xmlns:xlink="http://www.w3.org/1999/xlink">
    <!-- Generator: Sketch 50.2 (55047) - http://www.bohemiancoding.com/sketch -->
    <title>Artboard 3</title>
    <desc>Created with Sketch.</desc>
    <defs></defs>
    <g id="Artboard-3" stroke="none" stroke-width="1" fill="none" fill-rule="evenodd">
        <g id="Group" transform="translate(20.000000, 20.000000)" fill="#31C0C4">
            <path d="M46.1256623,16.1891059 C46.7334924,16.8031761 46.7334924,17.7934107 46.1256623,18.4014357 C45.8212598,18.7056433 45.4218899,18.8608671 45.02213,18.8608671 C44.6223701,18.8608671 44.2231952,18.7056433 43.9189877,18.4014357 C37.3414748,11.8241178 26.6423398,11.8241178 20.0704821,18.4014357 C19.4560218,19.0096558 18.4665673,19.0096558 17.8575673,18.4014357 C17.2499322,17.7871705 17.2499322,16.797716 17.8575673,16.1891059 C25.6521053,8.40080805 38.3313193,8.40080805 46.1256623,16.1891059 M34.0728038,30.323056 C34.0728038,31.4726094 33.1414608,32.4041475 31.9919073,32.4041475 C30.8421588,32.4041475 29.9104258,31.4726094 29.9104258,30.323056 C29.9104258,29.1733075 30.8421588,28.2417694 31.9919073,28.2417694 C33.1414608,28.2417694 34.0728038,29.1733075 34.0728038,30.323056 M37.6090214,24.711207 C38.2178265,25.319037 38.2178265,26.3090766 37.6090214,26.9176866 C37.3055939,27.2216992 36.905639,27.376728 36.5064641,27.376728 C36.1070942,27.376728 35.7071393,27.2216992 35.4033218,26.9176866 C33.5246453,25.03316 30.4589743,25.03316 28.5802978,26.9176866 C27.9664226,27.5259067 26.9765781,27.5259067 26.367773,26.9176866 C25.759748,26.3038114 25.759748,25.3133819 26.367773,24.7051618 C29.4691298,21.604 34.5142948,21.604 37.6090214,24.711207 M41.8378961,20.4831123 C42.4459212,21.0973775 42.4459212,22.087027 41.8378961,22.6952471 C41.5334936,22.9996496 41.1343187,23.1544834 40.7345588,23.1544834 C40.3346039,23.1544834 39.935039,22.9996496 39.6310265,22.6952471 C35.4206772,18.4850928 28.5684025,18.4850928 24.3586383,22.6952471 C23.743983,23.3034671 22.7539435,23.3034671 22.1457235,22.6952471 C21.5376984,22.0811769 21.5376984,21.0909423 22.1457235,20.4831123 C27.5729029,15.0506677 36.4107167,15.0506677 41.8378961,20.4831123 M54.3070899,40.7753148 L50.6702499,40.7753148 C50.675515,40.7753148 50.6794151,40.5516443 50.6794151,40.4293763 C50.6794151,35.8619731 46.9634031,32.1557114 42.39561,32.1557114 C37.8284018,32.1557114 34.1129748,35.857488 34.1129748,40.4248911 C34.1129748,40.5469642 34.1168749,40.7753148 34.1221401,40.7753148 L29.9346063,40.7753148 C29.9398715,40.7753148 29.9437716,40.5516443 29.9437716,40.4293763 C29.9437716,35.8619731 26.2273695,32.1557114 21.6597714,32.1557114 C17.0925633,32.1557114 13.3769413,35.857488 13.3769413,40.4248911 C13.3769413,40.5469642 13.3808414,40.7753148 13.3861065,40.7753148 L9.69291005,40.7753148 C8.15763703,37.6552376 7.29591069,34.0289277 7.29591069,30.2253585 C7.29591069,16.5816507 18.3561946,5.58591334 31.9999025,5.58591334 C45.6430254,5.58591334 56.7038943,16.595691 56.7038943,30.2393989 C56.7038943,34.0429681 55.842363,37.6552376 54.3070899,40.7753148 M42.39561,46.1153271 C39.2708526,46.1153271 36.7287696,43.5728541 36.7287696,40.4479017 C36.7287696,37.3227543 39.2708526,34.7804764 42.39561,34.7804764 C45.5209524,34.7804764 48.0636203,37.3227543 48.0636203,40.4479017 C48.0636203,43.5728541 45.5209524,46.1153271 42.39561,46.1153271 M37.8831982,57.1087243 C33.8932044,57.0903939 32.4681091,54.9773215 32.020183,53.5600264 C31.5710869,54.9765415 30.1461866,57.0903939 26.1546327,57.1087243 C20.8610316,57.133685 19.4045406,51.7394614 19.4045406,51.7394614 C19.4045406,51.7394614 20.4341661,53.3457161 22.2410808,52.9192406 C24.0478006,52.49257 26.1058815,49.8822354 28.0255091,49.6033785 C30.4583893,49.3338818 31.6106729,50.3972431 32.020963,51.4282337 C32.4306682,50.3966581 33.5810017,49.3338818 36.0152469,49.6033785 C37.9354595,49.8818454 39.9933455,52.49257 41.7990902,52.9192406 C43.6060049,53.3457161 44.6338754,51.7394614 44.6338754,51.7394614 C44.6338754,51.7394614 43.1775793,57.133685 37.8831982,57.1087243 M15.9925411,40.4479017 C15.9925411,37.3227543 18.535014,34.7804764 21.6597714,34.7804764 C24.7853088,34.7804764 27.3279768,37.3227543 27.3279768,40.4479017 C27.3279768,43.5728541 24.7853088,46.1153271 21.6597714,46.1153271 C18.535014,46.1153271 15.9925411,43.5728541 15.9925411,40.4479017 M31.9999025,0 C14.3271998,0 0,14.3271998 0,32.0000975 C0,49.6729952 14.3271998,64 31.9999025,64 C49.6724102,64 64,49.6729952 64,32.0000975 C64,14.3271998 49.6724102,0 31.9999025,0" id="Fill-1"></path>
        </g>
        <text id="AUTONIO" font-family="AvenirNext-Bold, Avenir Next" font-size="36" font-weight="bold" fill="#31C0C4">
            <tspan x="99" y="64">AUTONIO</tspan>
        </text>
    </g>
</svg>