<?xml version="1.0" encoding="UTF-8" standalone="no"?>
<svg width="253px" height="253px" viewBox="0 0 253 253" version="1.1" xmlns="http://www.w3.org/2000/svg" xmlns:xlink="http://www.w3.org/1999/xlink">
    <!-- Generator: Sketch 50.2 (55047) - http://www.bohemiancoding.com/sketch -->
    <title>Autonio_logo</title>
    <desc>Created with Sketch.</desc>
    <defs></defs>
    <g id="Screens" stroke="none" stroke-width="1" fill="none" fill-rule="evenodd">
        <g id="Artboard-1" transform="translate(-38.000000, -38.000000)">
            <g id="Autonio_logo" transform="translate(38.000000, 38.000000)">
                <circle id="Oval-3" fill="#FFFFFF" cx="126.5" cy="126.5" r="126.5"></circle>
                <path d="M172.889834,73.7247381 C174.903271,75.7588447 174.903271,79.038995 172.889834,81.0530771 C171.881501,82.0607641 170.558589,82.5749428 169.234385,82.5749428 C167.910181,82.5749428 166.587915,82.0607641 165.580228,81.0530771 C143.792227,59.2657218 108.351359,59.2657218 86.5820905,81.0530771 C84.5466919,83.0678051 81.2691254,83.0678051 79.2518136,81.0530771 C77.2390235,79.0183245 77.2390235,75.740758 79.2518136,73.7247381 C105.071209,47.9260135 147.071085,47.9260135 172.889834,73.7247381 M132.964759,120.543426 C132.964759,124.35132 129.879687,127.437038 126.071793,127.437038 C122.263253,127.437038 119.176889,124.35132 119.176889,120.543426 C119.176889,116.734885 122.263253,113.649167 126.071793,113.649167 C129.879687,113.649167 132.964759,116.734885 132.964759,120.543426 M144.678475,101.954185 C146.695141,103.967621 146.695141,107.247125 144.678475,109.263145 C143.673371,110.270186 142.348521,110.783719 141.026255,110.783719 C139.703343,110.783719 138.378493,110.270186 137.372098,109.263145 C131.148985,103.020653 120.993955,103.020653 114.770842,109.263145 C112.737381,111.277873 109.458523,111.277873 107.441857,109.263145 C105.427775,107.229684 105.427775,103.948888 107.441857,101.93416 C117.715096,91.6615664 134.427197,91.6615664 144.678475,101.954185 M158.686616,87.9486274 C160.700698,89.98338 160.700698,93.2615924 158.686616,95.2763204 C157.678283,96.2846534 156.356016,96.7975402 155.031812,96.7975402 C153.706962,96.7975402 152.383404,96.2846534 151.376363,95.2763204 C137.429588,81.330191 114.731439,81.330191 100.786601,95.2763204 C98.7505567,97.2910484 95.4710523,97.2910484 93.4563243,95.2763204 C91.4422423,93.2422138 91.4422423,89.9620635 93.4563243,87.9486274 C111.433848,69.9536634 140.709092,69.9536634 158.686616,87.9486274 M199.990801,155.166517 L187.943774,155.166517 C187.961214,155.166517 187.974133,154.425608 187.974133,154.020596 C187.974133,138.89108 175.664849,126.614094 160.534042,126.614094 C145.405172,126.614094 133.097826,138.876223 133.097826,154.005739 C133.097826,154.410105 133.110745,155.166517 133.128186,155.166517 L119.256987,155.166517 C119.274427,155.166517 119.287347,154.425608 119.287347,154.020596 C119.287347,138.89108 106.976771,126.614094 91.846609,126.614094 C76.7177393,126.614094 64.4097471,138.876223 64.4097471,154.005739 C64.4097471,154.410105 64.4226662,155.166517 64.4401069,155.166517 L52.2063994,155.166517 C47.1208099,144.831266 44.2663428,132.81912 44.2663428,120.219803 C44.2663428,75.0250419 80.9035159,38.6016792 126.098277,38.6016792 C171.2911,38.6016792 207.930211,75.0715505 207.930211,120.266312 C207.930211,132.865629 205.07639,144.831266 199.990801,155.166517 M160.534042,172.855299 C150.183288,172.855299 141.762642,164.433361 141.762642,154.081961 C141.762642,143.729915 150.183288,135.308624 160.534042,135.308624 C170.886734,135.308624 179.309317,143.729915 179.309317,154.081961 C179.309317,164.433361 170.886734,172.855299 160.534042,172.855299 M145.586685,209.27091 C132.369837,209.210191 127.649211,202.210642 126.165456,197.515854 C124.677826,202.208058 119.957846,209.210191 106.73583,209.27091 C89.2007847,209.353592 84.3761603,191.485235 84.3761603,191.485235 C84.3761603,191.485235 87.7867932,196.805951 93.7721954,195.393252 C99.7569518,193.979906 106.574342,185.333177 112.933105,184.409464 C120.992017,183.516756 124.808954,187.039139 126.16804,190.454294 C127.525188,187.037201 131.335666,183.516756 139.399099,184.409464 C145.7598,185.331885 152.576544,193.979906 158.558071,195.393252 C164.543473,196.805951 167.948292,191.485235 167.948292,191.485235 C167.948292,191.485235 163.124314,209.353592 145.586685,209.27091 M73.0739173,154.081961 C73.0739173,143.729915 81.495855,135.308624 91.846609,135.308624 C102.199947,135.308624 110.62253,143.729915 110.62253,154.081961 C110.62253,164.433361 102.199947,172.855299 91.846609,172.855299 C81.495855,172.855299 73.0739173,164.433361 73.0739173,154.081961 M126.098277,20.09835 C67.557477,20.09835 20.09865,67.557177 20.09865,126.098623 C20.09865,184.640069 67.557477,232.09825 126.098277,232.09825 C184.638431,232.09825 232.09855,184.640069 232.09855,126.098623 C232.09855,67.557177 184.638431,20.09835 126.098277,20.09835" id="Fill-1" fill="#31C0C4"></path>
            </g>
        </g>
    </g>
</svg>